<mxfile host="app.diagrams.net" modified="2021-07-11T11:10:07.690Z" agent="5.0 (Macintosh; Intel Mac OS X 10_15_6) AppleWebKit/605.1.15 (KHTML, like Gecko) Version/14.0.3 Safari/605.1.15" etag="d7gDdFOeSDH0uTD1FVbD" version="14.6.11" type="github">
  <diagram id="eaRuW-nFD5j0tB5LDdg6" name="第 1 页">
    <mxGraphModel dx="946" dy="443" grid="1" gridSize="10" guides="1" tooltips="1" connect="1" arrows="1" fold="1" page="1" pageScale="1" pageWidth="827" pageHeight="1169" math="0" shadow="0">
      <root>
        <mxCell id="0" />
        <mxCell id="1" parent="0" />
        <mxCell id="bgTCsgBeyOdxo0fJteLC-1" value="" style="rounded=0;whiteSpace=wrap;html=1;fontSize=16;fillColor=#f9f7ed;strokeColor=none;" vertex="1" parent="1">
          <mxGeometry x="230" y="80" width="390" height="370" as="geometry" />
        </mxCell>
        <mxCell id="bgTCsgBeyOdxo0fJteLC-2" value="" style="group;fontSize=16;fontStyle=1" vertex="1" connectable="0" parent="1">
          <mxGeometry x="270" y="100" width="310" height="340" as="geometry" />
        </mxCell>
        <mxCell id="bgTCsgBeyOdxo0fJteLC-3" value="" style="aspect=fixed;perimeter=ellipsePerimeter;html=1;align=center;shadow=0;dashed=0;spacingTop=3;image;image=img/lib/active_directory/generic_server.svg;" vertex="1" parent="bgTCsgBeyOdxo0fJteLC-2">
          <mxGeometry width="45.95862068965517" height="82.06896551724137" as="geometry" />
        </mxCell>
        <mxCell id="bgTCsgBeyOdxo0fJteLC-4" value="" style="aspect=fixed;perimeter=ellipsePerimeter;html=1;align=center;shadow=0;dashed=0;spacingTop=3;image;image=img/lib/active_directory/generic_server.svg;" vertex="1" parent="bgTCsgBeyOdxo0fJteLC-2">
          <mxGeometry x="134.7826086956522" width="45.95862068965517" height="82.06896551724137" as="geometry" />
        </mxCell>
        <mxCell id="bgTCsgBeyOdxo0fJteLC-5" value="" style="aspect=fixed;perimeter=ellipsePerimeter;html=1;align=center;shadow=0;dashed=0;spacingTop=3;image;image=img/lib/active_directory/generic_server.svg;" vertex="1" parent="bgTCsgBeyOdxo0fJteLC-2">
          <mxGeometry x="259.19732441471575" width="45.95862068965517" height="82.06896551724137" as="geometry" />
        </mxCell>
        <mxCell id="bgTCsgBeyOdxo0fJteLC-6" value="" style="aspect=fixed;perimeter=ellipsePerimeter;html=1;align=center;shadow=0;dashed=0;spacingTop=3;image;image=img/lib/active_directory/generic_server.svg;" vertex="1" parent="bgTCsgBeyOdxo0fJteLC-2">
          <mxGeometry y="105.51724137931033" width="45.95862068965517" height="82.06896551724137" as="geometry" />
        </mxCell>
        <mxCell id="bgTCsgBeyOdxo0fJteLC-7" value="" style="aspect=fixed;perimeter=ellipsePerimeter;html=1;align=center;shadow=0;dashed=0;spacingTop=3;image;image=img/lib/active_directory/generic_server.svg;" vertex="1" parent="bgTCsgBeyOdxo0fJteLC-2">
          <mxGeometry x="134.7826086956522" y="105.51724137931033" width="45.95862068965517" height="82.06896551724137" as="geometry" />
        </mxCell>
        <mxCell id="bgTCsgBeyOdxo0fJteLC-8" value="" style="aspect=fixed;perimeter=ellipsePerimeter;html=1;align=center;shadow=0;dashed=0;spacingTop=3;image;image=img/lib/active_directory/generic_server.svg;" vertex="1" parent="bgTCsgBeyOdxo0fJteLC-2">
          <mxGeometry x="259.19732441471575" y="105.51724137931033" width="45.95862068965517" height="82.06896551724137" as="geometry" />
        </mxCell>
        <mxCell id="bgTCsgBeyOdxo0fJteLC-9" value="" style="aspect=fixed;perimeter=ellipsePerimeter;html=1;align=center;shadow=0;dashed=0;spacingTop=3;image;image=img/lib/active_directory/generic_server.svg;" vertex="1" parent="bgTCsgBeyOdxo0fJteLC-2">
          <mxGeometry y="257.9310344827586" width="45.95862068965517" height="82.06896551724137" as="geometry" />
        </mxCell>
        <mxCell id="bgTCsgBeyOdxo0fJteLC-10" value="" style="aspect=fixed;perimeter=ellipsePerimeter;html=1;align=center;shadow=0;dashed=0;spacingTop=3;image;image=img/lib/active_directory/generic_server.svg;" vertex="1" parent="bgTCsgBeyOdxo0fJteLC-2">
          <mxGeometry x="134.7826086956522" y="257.9310344827586" width="45.95862068965517" height="82.06896551724137" as="geometry" />
        </mxCell>
        <mxCell id="bgTCsgBeyOdxo0fJteLC-11" value="" style="aspect=fixed;perimeter=ellipsePerimeter;html=1;align=center;shadow=0;dashed=0;spacingTop=3;image;image=img/lib/active_directory/generic_server.svg;" vertex="1" parent="bgTCsgBeyOdxo0fJteLC-2">
          <mxGeometry x="259.19732441471575" y="257.9310344827586" width="45.95862068965517" height="82.06896551724137" as="geometry" />
        </mxCell>
        <mxCell id="bgTCsgBeyOdxo0fJteLC-12" value="............" style="text;html=1;align=center;verticalAlign=middle;resizable=0;points=[];autosize=1;strokeColor=none;fontSize=16;fontStyle=1" vertex="1" parent="bgTCsgBeyOdxo0fJteLC-2">
          <mxGeometry x="116.304347826087" y="211.03448275862067" width="70" height="20" as="geometry" />
        </mxCell>
        <mxCell id="bgTCsgBeyOdxo0fJteLC-13" value="心跳管理服务器" style="aspect=fixed;perimeter=ellipsePerimeter;html=1;align=center;shadow=0;dashed=0;spacingTop=3;image;image=img/lib/active_directory/generic_node.svg;fontSize=16;" vertex="1" parent="1">
          <mxGeometry x="770" y="190" width="132.65" height="130" as="geometry" />
        </mxCell>
        <mxCell id="bgTCsgBeyOdxo0fJteLC-14" value="" style="shape=flexArrow;endArrow=classic;html=1;fontSize=16;fillColor=#f0a30a;strokeColor=#BD7000;" edge="1" parent="1">
          <mxGeometry width="50" height="50" relative="1" as="geometry">
            <mxPoint x="630" y="140" as="sourcePoint" />
            <mxPoint x="760" y="210" as="targetPoint" />
          </mxGeometry>
        </mxCell>
        <mxCell id="bgTCsgBeyOdxo0fJteLC-15" value="心跳包" style="text;html=1;align=center;verticalAlign=middle;resizable=0;points=[];autosize=1;strokeColor=none;fontSize=16;" vertex="1" parent="1">
          <mxGeometry x="675" y="140" width="60" height="20" as="geometry" />
        </mxCell>
        <mxCell id="bgTCsgBeyOdxo0fJteLC-16" value="" style="shape=flexArrow;endArrow=classic;html=1;fontSize=16;fillColor=#f0a30a;strokeColor=#BD7000;" edge="1" parent="1">
          <mxGeometry width="50" height="50" relative="1" as="geometry">
            <mxPoint x="630" y="250" as="sourcePoint" />
            <mxPoint x="750" y="250" as="targetPoint" />
          </mxGeometry>
        </mxCell>
        <mxCell id="bgTCsgBeyOdxo0fJteLC-17" value="心跳包" style="text;html=1;align=center;verticalAlign=middle;resizable=0;points=[];autosize=1;strokeColor=none;fontSize=16;" vertex="1" parent="1">
          <mxGeometry x="650" y="220" width="60" height="20" as="geometry" />
        </mxCell>
        <mxCell id="bgTCsgBeyOdxo0fJteLC-18" value="" style="shape=flexArrow;endArrow=classic;html=1;fontSize=16;fillColor=#f0a30a;strokeColor=#BD7000;" edge="1" parent="1">
          <mxGeometry width="50" height="50" relative="1" as="geometry">
            <mxPoint x="645" y="410" as="sourcePoint" />
            <mxPoint x="765" y="320" as="targetPoint" />
          </mxGeometry>
        </mxCell>
        <mxCell id="bgTCsgBeyOdxo0fJteLC-19" value="心跳包" style="text;html=1;align=center;verticalAlign=middle;resizable=0;points=[];autosize=1;strokeColor=none;fontSize=16;" vertex="1" parent="1">
          <mxGeometry x="655" y="330" width="60" height="20" as="geometry" />
        </mxCell>
      </root>
    </mxGraphModel>
  </diagram>
</mxfile>
